<svg xmlns="http://www.w3.org/2000/svg" viewBox="0 0 100.88 100.88"><defs><style>.cls-1{fill:#010101;}</style></defs><g id="Layer_2" data-name="Layer 2"><g id="Layer_1-2" data-name="Layer 1"><g id="Medium-M"><path class="cls-1" d="M50.44,100.88a48.43,48.43,0,0,0,19.48-4,51.59,51.59,0,0,0,27-27,48.43,48.43,0,0,0,4-19.48,48.4,48.4,0,0,0-4-19.48,51.53,51.53,0,0,0-27-27A48.65,48.65,0,0,0,50.39,0,48.43,48.43,0,0,0,30.91,4,51.45,51.45,0,0,0,4,31,48.4,48.4,0,0,0,0,50.44,48.43,48.43,0,0,0,4,69.92a51.59,51.59,0,0,0,27,27A48.4,48.4,0,0,0,50.44,100.88Zm0-9.91a39.48,39.48,0,0,1-15.77-3.15A41,41,0,0,1,21.78,79.1a40.54,40.54,0,0,1-8.69-12.89A39.64,39.64,0,0,1,10,50.44a39.64,39.64,0,0,1,3.13-15.77,40.79,40.79,0,0,1,8.66-12.89,40.21,40.21,0,0,1,12.89-8.69A39.72,39.72,0,0,1,50.39,10a39.64,39.64,0,0,1,15.77,3.13A40.92,40.92,0,0,1,87.82,34.67,39.48,39.48,0,0,1,91,50.44a39.64,39.64,0,0,1-3.13,15.77,40.82,40.82,0,0,1-21.6,21.61A39.69,39.69,0,0,1,50.44,91ZM83,82.67l-.15-.83a18.39,18.39,0,0,0-6-6.94,36.33,36.33,0,0,0-11.16-5.49,50.46,50.46,0,0,0-15.23-2.12,50.46,50.46,0,0,0-15.23,2.12A36.86,36.86,0,0,0,24,74.9a17.93,17.93,0,0,0-5.95,6.94l-.2.83a44.75,44.75,0,0,0,10.4,7.15,59.35,59.35,0,0,0,11.67,4.42,42.45,42.45,0,0,0,10.5,1.51,42.07,42.07,0,0,0,10.5-1.51,58.69,58.69,0,0,0,11.59-4.42A45.8,45.8,0,0,0,83,82.67ZM50.44,59.23A15.33,15.33,0,0,0,59,56.84,17.32,17.32,0,0,0,65,50.2a19.77,19.77,0,0,0,2.23-9.43,18.44,18.44,0,0,0-2.25-9,18.19,18.19,0,0,0-6-6.59,15.84,15.84,0,0,0-17,0,18.33,18.33,0,0,0-6.07,6.59,17.9,17.9,0,0,0-2.23,9,20.21,20.21,0,0,0,2.27,9.4,17.37,17.37,0,0,0,6,6.59A15.94,15.94,0,0,0,50.44,59.23Z"/></g></g></g></svg>